<svg width="169" height="38" viewBox="0 0 169 38" fill="none" xmlns="http://www.w3.org/2000/svg">
<path d="M10.976 2.728C14.016 2.728 16.56 3.016 18.608 3.592C20.688 4.136 22.24 5.048 23.264 6.328C24.32 7.576 24.848 9.272 24.848 11.416C24.848 12.696 24.64 13.864 24.224 14.92C23.808 15.976 23.2 16.84 22.4 17.512C21.632 18.184 20.688 18.616 19.568 18.808V19.048C20.72 19.272 21.76 19.672 22.688 20.248C23.616 20.824 24.352 21.656 24.896 22.744C25.44 23.832 25.712 25.272 25.712 27.064C25.712 29.144 25.2 30.936 24.176 32.44C23.184 33.912 21.744 35.048 19.856 35.848C17.968 36.616 15.728 37 13.136 37H0.32V2.728H10.976ZM11.792 16.312C13.904 16.312 15.36 15.976 16.16 15.304C16.992 14.632 17.408 13.656 17.408 12.376C17.408 11.064 16.928 10.12 15.968 9.544C15.008 8.968 13.488 8.68 11.408 8.68H7.568V16.312H11.792ZM7.568 22.072V31H12.32C14.496 31 16.016 30.584 16.88 29.752C17.744 28.888 18.176 27.752 18.176 26.344C18.176 25.48 17.984 24.728 17.6 24.088C17.248 23.448 16.624 22.952 15.728 22.6C14.832 22.248 13.616 22.072 12.08 22.072H7.568ZM39.146 10.792V37H31.994V10.792H39.146ZM35.594 0.519998C36.65 0.519998 37.562 0.775998 38.33 1.288C39.098 1.768 39.482 2.68 39.482 4.024C39.482 5.336 39.098 6.248 38.33 6.76C37.562 7.272 36.65 7.528 35.594 7.528C34.506 7.528 33.578 7.272 32.81 6.76C32.074 6.248 31.706 5.336 31.706 4.024C31.706 2.68 32.074 1.768 32.81 1.288C33.578 0.775998 34.506 0.519998 35.594 0.519998ZM57.659 31.768C58.459 31.768 59.227 31.688 59.963 31.528C60.699 31.368 61.435 31.176 62.171 30.952V36.28C61.403 36.6 60.443 36.872 59.291 37.096C58.171 37.352 56.939 37.48 55.595 37.48C54.027 37.48 52.619 37.224 51.371 36.712C50.155 36.2 49.179 35.32 48.443 34.072C47.739 32.792 47.387 31.032 47.387 28.792V16.168H43.979V13.144L47.915 10.744L49.979 5.224H54.539V10.792H61.883V16.168H54.539V28.792C54.539 29.784 54.827 30.536 55.403 31.048C55.979 31.528 56.731 31.768 57.659 31.768Z" fill="#FF8000"/>
<path d="M96.0875 37H88.8395V22.216H75.2555V37H68.0075V2.728H75.2555V16.168H88.8395V2.728H96.0875V37ZM111.287 10.792V37H104.135V10.792H111.287ZM107.735 0.519998C108.791 0.519998 109.703 0.775998 110.471 1.288C111.239 1.768 111.623 2.68 111.623 4.024C111.623 5.336 111.239 6.248 110.471 6.76C109.703 7.272 108.791 7.528 107.735 7.528C106.647 7.528 105.719 7.272 104.951 6.76C104.215 6.248 103.847 5.336 103.847 4.024C103.847 2.68 104.215 1.768 104.951 1.288C105.719 0.775998 106.647 0.519998 107.735 0.519998ZM125 37L115.016 10.792H122.504L127.544 25.72C127.736 26.296 127.896 26.904 128.024 27.544C128.184 28.184 128.296 28.808 128.36 29.416C128.456 30.024 128.52 30.584 128.552 31.096H128.744C128.776 30.552 128.84 29.976 128.936 29.368C129.032 28.76 129.144 28.152 129.272 27.544C129.432 26.904 129.608 26.296 129.8 25.72L134.84 10.792H142.328L132.344 37H125ZM156.888 10.312C159.32 10.312 161.4 10.776 163.128 11.704C164.888 12.632 166.248 13.976 167.208 15.736C168.168 17.496 168.648 19.656 168.648 22.216V25.672H151.752C151.816 27.688 152.408 29.272 153.528 30.424C154.68 31.576 156.264 32.152 158.28 32.152C159.976 32.152 161.512 31.992 162.888 31.672C164.264 31.32 165.688 30.792 167.16 30.088V35.608C165.88 36.248 164.52 36.712 163.08 37C161.672 37.32 159.96 37.48 157.944 37.48C155.32 37.48 153 37 150.984 36.04C148.968 35.048 147.384 33.56 146.232 31.576C145.08 29.592 144.504 27.096 144.504 24.088C144.504 21.016 145.016 18.472 146.04 16.456C147.096 14.408 148.552 12.872 150.408 11.848C152.264 10.824 154.424 10.312 156.888 10.312ZM156.936 15.4C155.56 15.4 154.408 15.848 153.48 16.744C152.584 17.64 152.056 19.032 151.896 20.92H161.928C161.928 19.864 161.736 18.92 161.352 18.088C161 17.256 160.456 16.6 159.72 16.12C158.984 15.64 158.056 15.4 156.936 15.4Z" fill="black"/>
</svg>
