<svg width="40" height="38" viewBox="0 0 40 38" fill="none" xmlns="http://www.w3.org/2000/svg">
<path d="M22.1761 1.33579C21.7747 0.519473 20.9263 0 19.9946 0C19.0628 0 18.222 0.519473 17.813 1.33579L12.9423 11.1538L2.06466 12.7271C1.15567 12.8607 0.398173 13.484 0.1179 14.3375C-0.162373 15.1909 0.0648751 16.1334 0.71632 16.7641L8.60942 24.4152L6.74598 35.2277C6.59448 36.1182 6.97323 37.0236 7.72315 37.5505C8.47307 38.0774 9.46538 38.1442 10.2835 37.7212L20.0021 32.6378L29.7208 37.7212C30.5389 38.1442 31.5312 38.0848 32.2811 37.5505C33.031 37.0162 33.4098 36.1182 33.2583 35.2277L31.3873 24.4152L39.2804 16.7641C39.9318 16.1334 40.1666 15.1909 39.8788 14.3375C39.5909 13.484 38.841 12.8607 37.932 12.7271L27.0468 11.1538L22.1761 1.33579Z" fill="#FFD43B"/>
</svg>
